[img]http://www.flicksandbits.com/wp-content/uploads/2011/12/the-grey.jpg[/img]

The Grey 2012 SCR X264 AC3 CrEwSaDe

******************************************************************************************************

Encoder: Crazycook and swag
Video Codec: AVC
Video Bitrate: 871 kbs
Audio Codec: AC3
Audio Bitrate: 128 kbs, 2 channels
Resolution: 720X304, 23.976 fps
Runtime: 1h 56mn
Release Date: 18 Feb. 2012
Theatre Date: 26 January 2012
Language: English
Subtitles: n/a
IMDB Rating: 7.7 / 10
IMDb URL: http://www.imdb.com/title/tt1601913/

_______________________________________________________________________________ 
General
Unique ID: 182760571206380635485645594350611691602 (0x897E67DA3FCB2A86BC492F19F4897852)
Complete name: D:torrent dataThe.Grey.2012.SCR.X264.AC3.CrEwSaDeThe.Grey.2012.SCR.X264.AC3.CrEwSaDe.mkv
Format: Matroska
Format version: Version 2
File size: 837 MiB
Duration: 1h 56mn
Overall bit rate: 1 001 Kbps
Encoded date: UTC 2012-02-18 08:28:40
Writing application: mkvmerge v5.3.0 ('I could have danced') built on Feb 9 2012 10:38:07
Writing library: libebml v1.2.3 + libmatroska v1.3.0

________________________________________________________________________________ 
Video
ID: 1
Format: AVC
Format/Info: Advanced Video Codec
Format profile: High@L3.0
Format settings, CABAC: Yes
Format settings, ReFrames: 5 frames
Codec ID: V_MPEG4/ISO/AVC
Duration: 1h 56mn
Bit rate: 871 Kbps
Width: 720 pixels
Height: 304 pixels
Display aspect ratio: 2.35:1
Frame rate: 23.976 fps
Color space: YUV
Chroma subsampling: 4:2:0
Bit depth: 8 bits
Scan type: Progressive
Bits/(Pixel*Frame): 0.166
Stream size: 713 MiB (85%)
Writing library: x264 core 120 r2164 da19765
Encoding settings: cabac=1 / ref=5 / deblock=1:-1:-1 / analyse=0x3:0x133 / me=umh / subme=6 / psy=1 / psy_rd=1.00:0.00 / mixed_ref=1 / me_range=16 / chroma_me=1 / trellis=2 / 8x8dct=1 / cqm=0 / deadzone=21,11 / fast_pskip=1 / chroma_qp_offset=-2 / threads=12 / sliced_threads=0 / nr=0 / decimate=1 / interlaced=0 / bluray_compat=0 / constrained_intra=0 / bframes=3 / b_pyramid=2 / b_adapt=2 / b_bias=0 / direct=3 / weightb=1 / open_gop=0 / weightp=2 / keyint=240 / keyint_min=23 / scenecut=40 / intra_refresh=0 / rc_lookahead=40 / rc=2pass / mbtree=1 / bitrate=871 / ratetol=1.0 / qcomp=0.60 / qpmin=10 / qpmax=51 / qpstep=4 / cplxblur=20.0 / qblur=0.5 / ip_ratio=1.40 / aq=1:1.00
_________________________________________________________________________________ 
Audio
ID: 2
Format: AC-3
Format/Info: Audio Coding 3
Mode extension: CM (complete main)
Codec ID: A_AC3
Duration: 1h 56mn
Bit rate mode: Constant
Bit rate: 128 Kbps
Channel(s): 2 channels
Channel positions: Front: L R
Sampling rate: 48.0 KHz
Bit depth: 16 bits
Compression mode: Lossy
Stream size: 107 MiB (13%)
_________________________________________________________________________________ SOURCES: VIDEO: a little birdy. Thanks AUDIO: a little birdy. Thanks
_________________________________________________________________________________ 
Plot:

In Alaska, an oil drilling team struggle to survive after a plane crash strands them in the wild. Hunting the humans are a pack of wolves who see them as intruders

[img]http://i1179.photobucket.com/albums/x394/crewsade/Crazycook%20Screens/vlcsnap-2012-02-18-03h34m03s246.png[/img]
[img]http://i1179.photobucket.com/albums/x394/crewsade/Crazycook%20Screens/vlcsnap-2012-02-18-03h34m24s192.png[/img]
[img]http://i1179.photobucket.com/albums/x394/crewsade/Crazycook%20Screens/vlcsnap-2012-02-18-03h34m50s210.png[/img]